<svg xmlns="http://www.w3.org/2000/svg" viewBox="0 0 268.56 352.12"><defs><style>.cls-1{fill:#b4b4b5;}.cls-10,.cls-12,.cls-13,.cls-2,.cls-3,.cls-4,.cls-7,.cls-8{fill:none;}.cls-2{stroke:#c8c9ca;}.cls-12,.cls-13,.cls-2,.cls-3,.cls-4,.cls-6,.cls-7{stroke-miterlimit:10;}.cls-3,.cls-8{stroke:#e50012;}.cls-4{stroke:#b4b4b5;stroke-dasharray:6 6;}.cls-4,.cls-8{stroke-width:2px;}.cls-5{fill:#ffecb5;}.cls-6{fill:#377238;}.cls-12,.cls-13,.cls-6{stroke:#377238;}.cls-7{stroke:#fff;}.cls-8{stroke-linecap:round;stroke-linejoin:round;stroke-dasharray:0 5;}.cls-9{fill:#e50012;}.cls-11{fill:#fff;}.cls-12{stroke-dasharray:3 3;}.cls-14{fill:#231815;}</style></defs><title>アセット 41</title><g id="レイヤー_2" data-name="レイヤー 2"><g id="photo"><path class="cls-1" d="M247.5,84.3a6.59,6.59,0,0,1,6.56,6.57V213.73a6.58,6.58,0,0,1-6.56,6.57H56.63a6.59,6.59,0,0,1-6.57-6.57V90.87a6.59,6.59,0,0,1,6.57-6.57H247.5m0-2H56.63a8.58,8.58,0,0,0-8.56,8.57V213.73a8.57,8.57,0,0,0,8.56,8.57H247.5a8.57,8.57,0,0,0,8.56-8.57V90.87a8.58,8.58,0,0,0-8.56-8.57Z"/><rect class="cls-2" x="160.91" y="92.87" width="81.76" height="6.1" rx="2.6" ry="2.6"/><rect class="cls-2" x="160.91" y="105.9" width="81.76" height="6.1" rx="2.6" ry="2.6"/><rect class="cls-2" x="160.91" y="118.93" width="81.76" height="6.1" rx="2.6" ry="2.6"/><rect class="cls-2" x="160.91" y="177.9" width="81.76" height="6.1" rx="2.6" ry="2.6"/><path class="cls-3" d="M226.9,147.58H163.39c-2.31-1.73-6.51-2.9-11.32-2.9s-9,1.17-11.33,2.9H77.23a2.65,2.65,0,0,0-2.38,2.85v.39a2.65,2.65,0,0,0,2.38,2.85h63.51c2.31,1.74,6.51,2.9,11.33,2.9s9-1.16,11.32-2.9H226.9a2.65,2.65,0,0,0,2.38-2.85v-.39A2.65,2.65,0,0,0,226.9,147.58Z"/><rect class="cls-2" x="160.91" y="190.93" width="81.76" height="6.1" rx="2.6" ry="2.6"/><rect class="cls-2" x="160.91" y="203.96" width="81.76" height="6.1" rx="2.6" ry="2.6"/><rect class="cls-2" x="61.47" y="92.87" width="81.76" height="6.1" rx="2.6" ry="2.6" transform="translate(204.69 191.84) rotate(-180)"/><rect class="cls-2" x="61.47" y="105.9" width="81.76" height="6.1" rx="2.6" ry="2.6" transform="translate(204.69 217.9) rotate(-180)"/><rect class="cls-2" x="61.47" y="118.93" width="81.76" height="6.1" rx="2.6" ry="2.6" transform="translate(204.69 243.96) rotate(180)"/><rect class="cls-2" x="61.47" y="177.9" width="81.76" height="6.1" rx="2.6" ry="2.6" transform="translate(204.69 361.9) rotate(180)"/><rect class="cls-2" x="61.47" y="190.93" width="81.76" height="6.1" rx="2.6" ry="2.6" transform="translate(204.69 387.96) rotate(-180)"/><rect class="cls-2" x="61.47" y="203.96" width="81.76" height="6.1" rx="2.6" ry="2.6" transform="translate(204.69 414.01) rotate(-180)"/><line class="cls-4" x1="152.06" y1="89.48" x2="152.06" y2="217.02"/><path class="cls-5" d="M152.09,48.38,126.69,4.72A9.52,9.52,0,0,0,119.28.46H78a5.8,5.8,0,0,0-5.58,4.89l-5.76,43"/><path class="cls-5" d="M152.09,48.38l25.4-43.66A9.52,9.52,0,0,1,184.9.46h41.31a5.81,5.81,0,0,1,5.58,4.89l5.76,43"/><polygon class="cls-1" points="152.06 52.25 50.09 52.25 50.09 47.25 152.06 47.25 254.09 47.25 254.09 52.25 152.06 52.25"/><rect class="cls-6" x="18.06" y="291.62" width="60" height="60"/><line class="cls-7" x1="30.2" y1="321.62" x2="65.2" y2="321.62"/></g><g id="design"><polyline class="cls-8" points="24.35 88 24.35 169.26 24.35 216.76"/><polygon class="cls-9" points="24.35 83 20.14 92.54 28.57 92.54 24.35 83"/><polygon class="cls-9" points="24.35 221.76 28.57 212.22 20.14 212.22 24.35 221.76"/><polyline class="cls-8" points="53.06 243.76 124.56 243.76 251.06 243.76"/><polygon class="cls-9" points="48.06 243.76 57.61 247.98 57.61 239.55 48.06 243.76"/><polygon class="cls-9" points="256.06 243.76 246.52 239.55 246.52 247.98 256.06 243.76"/><polyline class="cls-10" points="5.57 83 25.57 83 45.56 83"/><polyline class="cls-10" points="3.06 221.76 25.57 221.76 48.06 221.76"/><polyline class="cls-10" points="48.06 266.26 48.06 243.76 48.06 221.26"/><polyline class="cls-10" points="256.06 263.76 256.06 243.76 256.06 223.76"/><rect class="cls-11" x="10.35" y="135.5" width="30" height="25"/><rect class="cls-11" x="130.14" y="228.76" width="45" height="30"/><path class="cls-9" d="M6.39,149.67v2H5.11v-2H0V148.5l4.63-9.62H6L1.39,148.5H5.11v-3.64H6.39v3.64H8v1.17Z"/><path class="cls-9" d="M14.28,151.81a3.6,3.6,0,0,1-3.79-3.63,3.49,3.49,0,0,1,1.93-3.12,3.12,3.12,0,0,1-1.67-2.84,3.37,3.37,0,0,1,3.53-3.44,3.37,3.37,0,0,1,3.52,3.44,3.11,3.11,0,0,1-1.65,2.84,3.47,3.47,0,0,1,1.91,3.12A3.59,3.59,0,0,1,14.28,151.81Zm0-6.16a2.51,2.51,0,1,0,2.48,2.51A2.45,2.45,0,0,0,14.28,145.65Zm0-5.72a2.3,2.3,0,1,0,2.23,2.3A2.19,2.19,0,0,0,14.28,139.93Z"/><path class="cls-9" d="M27.67,151.7v-3.27a1.32,1.32,0,1,0-2.63-.09v3.36h-.78v-3.27A1.24,1.24,0,0,0,23,147a1.25,1.25,0,0,0-1.33,1.41v3.27h-.78v-5.31h.78V147a2,2,0,0,1,1.5-.65,1.75,1.75,0,0,1,1.63.89,2.06,2.06,0,0,1,1.75-.89,2,2,0,0,1,1.38.5,2,2,0,0,1,.57,1.48v3.4Z"/><path class="cls-9" d="M37.7,151.7v-3.27a1.32,1.32,0,1,0-2.63-.09v3.36h-.78v-3.27A1.24,1.24,0,0,0,33,147a1.25,1.25,0,0,0-1.33,1.41v3.27h-.77v-5.31h.77V147a2,2,0,0,1,1.51-.65,1.77,1.77,0,0,1,1.63.89,2,2,0,0,1,1.75-.89,2,2,0,0,1,1.37.5,2,2,0,0,1,.57,1.48v3.4Z"/><path class="cls-9" d="M137.45,251.26h-1.36l4.44-11.67h-4.46v2h-1.28v-3.17h7.11v1.15Z"/><path class="cls-9" d="M144.94,251.26v-1.15l5.06-6.43a2.91,2.91,0,0,0,.72-1.89,2.23,2.23,0,1,0-4.46,0H145a3.34,3.34,0,0,1,3.53-3.48,3.29,3.29,0,0,1,3.53,3.46,3.83,3.83,0,0,1-1,2.59l-4.48,5.73H152v1.15Z"/><path class="cls-9" d="M161.81,251.26V248a1.32,1.32,0,1,0-2.63-.09v3.36h-.78V248a1.24,1.24,0,0,0-1.31-1.42,1.26,1.26,0,0,0-1.33,1.42v3.27H155V246h.78v.58a2,2,0,0,1,1.5-.65,1.76,1.76,0,0,1,1.64.89,2,2,0,0,1,1.75-.89,1.84,1.84,0,0,1,1.94,2v3.4Z"/><path class="cls-9" d="M171.85,251.26V248a1.32,1.32,0,1,0-2.64-.09v3.36h-.78V248a1.32,1.32,0,1,0-2.63,0v3.27H165V246h.78v.58a1.92,1.92,0,0,1,1.5-.65,1.75,1.75,0,0,1,1.63.89,2,2,0,0,1,1.75-.89,1.94,1.94,0,0,1,1.37.5,2,2,0,0,1,.57,1.48v3.4Z"/><path class="cls-12" d="M77.41,321.62H268.06"/><path class="cls-13" d="M78.06,351.62h190v-60h-190"/><line class="cls-10" x1="74.81" y1="296.62" x2="74.81" y2="316.5"/><line class="cls-10" x1="74.81" y1="327" x2="74.81" y2="346.88"/><path class="cls-11" d="M42.07,306H37.58c.75,2.67,2.2,4.71,4.72,5.58a4.91,4.91,0,0,0-.83,1.09,8.22,8.22,0,0,1-4.73-5.41A7.87,7.87,0,0,1,32,312.67a3.72,3.72,0,0,0-.82-1A7.16,7.16,0,0,0,35.8,306H31.37v-1.17H36c.11-1.15.1-2.32.11-3.38l1.54.09c0,.12-.11.21-.3.23,0,1,0,2-.13,3.06h4.89Z"/><path class="cls-11" d="M53.6,306a17.42,17.42,0,0,1-3.48.69A4.37,4.37,0,0,0,52,308.36l-.65.94a3.36,3.36,0,0,0-2-.52,5.3,5.3,0,0,0-.57,0l-.27-.9h.43a5.94,5.94,0,0,1,.78,0,5,5,0,0,1-.79-1.13c-.86.06-1.82.09-2.56.09s-1.58,0-2.33,0v-1c.68,0,1.62,0,2.3,0s1.53,0,2.25-.08c-.1-.33-.28-.91-.39-1.36-.39,0-1.06.06-2.29.06-.4,0-.78,0-1.12,0v-1c.51,0,1,0,1.49,0s1.27,0,1.73,0c-.11-.53-.22-1.17-.3-1.8l1.59,0c0,.13-.12.23-.32.28,0,.44.11.94.19,1.39a13.54,13.54,0,0,0,3.12-.65l.25,1a15.43,15.43,0,0,1-3.15.61c.12.52.25,1,.37,1.37a17.43,17.43,0,0,0,3.64-.78Zm-4.86,6.28c-2,0-3.47-.69-3.47-2.06a2.49,2.49,0,0,1,1.35-1.91l.78.74a1.48,1.48,0,0,0-.92,1.13c0,.72.91,1,2.25,1,.88,0,2,0,2.78-.12l0,1.1c-.54,0-1.26.08-2.26.08Z"/><path class="cls-11" d="M65,304.46a22.92,22.92,0,0,1-3.79.59,4,4,0,0,0,2.16,2.87l-.84,1a3.64,3.64,0,0,0-2.64-.82l-.26-1a10.61,10.61,0,0,1,1.27.15,6.17,6.17,0,0,1-.92-2.15c-.51,0-1.13.06-1.79.06s-2.1,0-2.89,0V304c.7,0,1.64,0,2.9,0,.51,0,1.07,0,1.5-.06-.14-.66-.26-1.47-.38-2.32l1.68,0c0,.15-.12.26-.33.29a18.89,18.89,0,0,0,.27,1.92,19.6,19.6,0,0,0,3.84-.67Zm-2.2,7.75H60.53c-2.71,0-4.33-1-4.33-2.49a2.87,2.87,0,0,1,1-2l.9.68a1.77,1.77,0,0,0-.74,1.3c0,1,1.35,1.39,3.15,1.39,1,0,1.67,0,2.28-.06Z"/><path class="cls-11" d="M32,339.36a17.13,17.13,0,0,1-1.57.84,6.25,6.25,0,0,0-.65-.93,12.73,12.73,0,0,0,5-3.77l1.56.07a.32.32,0,0,1-.28.19,13,13,0,0,0,5,3.35,5.35,5.35,0,0,0-.7,1,13.41,13.41,0,0,1-1.58-.83v3.34H37.64v-.35H33.12v.39H32Zm-.59-5.71V335H30.32v-2.41h4.44v-1.17l1.44.08c0,.11-.08.17-.27.2v.89h4.53V335H39.3v-1.37Zm3.1.94a.29.29,0,0,1-.3.11,11,11,0,0,1-3,2.48,5.69,5.69,0,0,0-.73-.85,8,8,0,0,0,2.8-2.22Zm-1.41,6.7h4.52v-1.71H33.12Zm4.51-2.72a12,12,0,0,1-2.27-2,11.1,11.1,0,0,1-2.15,2Zm1.73-1.44a17.32,17.32,0,0,0-3.07-2.37l.8-.66a17,17,0,0,1,3.12,2.28Z"/><path class="cls-11" d="M61.12,341.52h5v.87h-11v-.87H60v-.59H56.13v-.76H60v-.5H56.59v-3.05h8v3.05H61.12v.5h3.94v.76H61.12Zm4.93-6.23v.83H55.13v-.83Zm-1.67-3.39v2.91H56.79V331.9Zm-6.72,5.36v.57H60v-.57Zm0,1.77H60v-.58H57.66Zm5.58-6v-.51H57.89V333Zm0,1.14v-.53H57.89v.53Zm.2,3.65v-.57H61.12v.57Zm0,1.2v-.58H61.12V339Z"/><path class="cls-14" d="M117.74,311.92v2h-2.5v-2h-5.82v-2.46l4.88-9.77h2.84l-4.88,9.77h3v-2.67h2.5v2.67H119v2.46Z"/><path class="cls-14" d="M126.1,314.06c-2.52,0-4.56-1.5-4.56-4.26a3.72,3.72,0,0,1,1.78-3.21,3.52,3.52,0,0,1-1.6-3,4.38,4.38,0,0,1,8.74,0,3.52,3.52,0,0,1-1.6,3,3.73,3.73,0,0,1,1.8,3.21C130.66,312.56,128.62,314.06,126.1,314.06Zm0-6.28a2,2,0,1,0,2,2A2,2,0,0,0,126.1,307.78Zm0-5.87a1.8,1.8,0,0,0,0,3.6,1.8,1.8,0,0,0,0-3.6Z"/><path class="cls-14" d="M149,312l-.89.9-5.54-5.54L137,312.86l-.88-.9,5.52-5.52-5.52-5.53.88-.9,5.52,5.54,5.54-5.54.89.88-5.53,5.55Z"/><path class="cls-14" d="M159,313.94h-2.82L160.76,302H157v2.24h-2.48v-4.58h9.06V302Z"/><path class="cls-14" d="M166.56,313.94V311.6l5.32-6.18a2.49,2.49,0,0,0,.74-1.73,1.73,1.73,0,1,0-3.46,0h-2.6a4,4,0,0,1,4.34-4.16,4,4,0,0,1,4.32,4.14A4.58,4.58,0,0,1,173.7,307l-4,4.62h5.5v2.34Z"/><path class="cls-14" d="M193.67,312l-.88.9-5.55-5.54-5.52,5.54-.88-.9,5.52-5.52-5.52-5.53.88-.9,5.52,5.54,5.55-5.54.88.88-5.53,5.55Z"/><path class="cls-14" d="M205.68,313.94v-6.36a1.7,1.7,0,1,0-3.38,0v6.36h-2.6V299.69h2.6v4.78a3.44,3.44,0,0,1,2.5-1.08c2.28,0,3.48,1.61,3.48,3.81v6.74Z"/><path class="cls-14" d="M214.83,314.81a7.92,7.92,0,0,1,0-9.22h.68a7.45,7.45,0,0,0-1.43,4.64,7.54,7.54,0,0,0,1.43,4.58Z"/><path class="cls-14" d="M224.37,313.94v-3.78a1,1,0,1,0-2.08,0v3.82h-1.56v-3.78a1,1,0,1,0-2.07,0v3.78H217.1v-6.25h1.52v.57a2.18,2.18,0,0,1,1.56-.64,1.91,1.91,0,0,1,1.65.79,2.41,2.41,0,0,1,1.88-.79,2.17,2.17,0,0,1,1.53.55,2.36,2.36,0,0,1,.68,1.77v4Z"/><path class="cls-14" d="M235,313.94v-3.78a1,1,0,1,0-2.08,0v3.82h-1.56v-3.78a1,1,0,1,0-2.07,0v3.78h-1.56v-6.25h1.52v.57a2.19,2.19,0,0,1,1.56-.64,1.94,1.94,0,0,1,1.66.79,2.37,2.37,0,0,1,1.87-.79,2.17,2.17,0,0,1,1.53.55,2.33,2.33,0,0,1,.69,1.77v4Z"/><path class="cls-14" d="M240.05,305.59a8,8,0,0,1,0,9.22h-.67a8.19,8.19,0,0,0,0-9.22Z"/><path class="cls-14" d="M130.74,343.94V341.6l5.32-6.18a2.49,2.49,0,0,0,.74-1.73,1.73,1.73,0,1,0-3.46,0h-2.6a4,4,0,0,1,4.34-4.16,4,4,0,0,1,4.32,4.14,4.58,4.58,0,0,1-1.52,3.27l-4,4.62h5.5v2.34Z"/><path class="cls-14" d="M146.86,344.06a4.11,4.11,0,0,1-4.34-4.24v-6a4.33,4.33,0,0,1,8.66,0v6A4.09,4.09,0,0,1,146.86,344.06Zm1.72-10.21a1.74,1.74,0,1,0-3.46,0v5.95a1.74,1.74,0,1,0,3.46,0Z"/><path class="cls-14" d="M172.44,335.5c-1.26,2.26-3.1,3.46-5.2,3.46a6,6,0,0,1-4.46-2.1,4.64,4.64,0,0,0-3.48-1.7,4.54,4.54,0,0,0-3.88,2.7l-1.3-.68c1.26-2.26,3.1-3.47,5.2-3.47a6.05,6.05,0,0,1,4.46,2.11,4.71,4.71,0,0,0,3.48,1.7,4.55,4.55,0,0,0,3.88-2.71Z"/><path class="cls-14" d="M175.46,343.94V341.6l5.32-6.18a2.49,2.49,0,0,0,.74-1.73,1.73,1.73,0,1,0-3.46,0h-2.6a4,4,0,0,1,4.34-4.16,4,4,0,0,1,4.32,4.14A4.58,4.58,0,0,1,182.6,337l-4,4.62h5.5v2.34Z"/><path class="cls-14" d="M191.58,344.06c-2.52,0-4.56-1.5-4.56-4.26a3.72,3.72,0,0,1,1.78-3.21,3.52,3.52,0,0,1-1.6-3,4.38,4.38,0,0,1,8.74,0,3.52,3.52,0,0,1-1.6,3,3.73,3.73,0,0,1,1.8,3.21C196.14,342.56,194.1,344.06,191.58,344.06Zm0-6.28a2,2,0,1,0,2,2A2,2,0,0,0,191.58,337.78Zm0-5.87a1.8,1.8,0,0,0,0,3.6,1.8,1.8,0,0,0,0-3.6Z"/><path class="cls-14" d="M200.21,344.81a7.92,7.92,0,0,1,0-9.22h.68a7.45,7.45,0,0,0-1.43,4.64,7.54,7.54,0,0,0,1.43,4.58Z"/><path class="cls-14" d="M209.74,343.94v-3.78a1,1,0,1,0-2.07,0v3.82h-1.56v-3.78a1,1,0,1,0-2.08,0v3.78h-1.56v-6.25H204v.57a2.16,2.16,0,0,1,1.56-.64,1.94,1.94,0,0,1,1.65.79,2.39,2.39,0,0,1,1.87-.79,2.17,2.17,0,0,1,1.54.55,2.36,2.36,0,0,1,.68,1.77v4Z"/><path class="cls-14" d="M215.35,343.94a1.7,1.7,0,0,1-1.83-1.79V335.4h1.56v6.65c0,.38.16.57.56.57h.6v1.32Z"/><path class="cls-14" d="M219.3,335.59a8,8,0,0,1,0,9.22h-.68a8.15,8.15,0,0,0,0-9.22Z"/><polyline class="cls-8" points="24.35 5 24.35 4 24.35 52.25"/><polygon class="cls-9" points="24.35 0 20.14 9.54 28.57 9.54 24.35 0"/><polygon class="cls-9" points="24.35 53.25 28.57 43.71 20.14 43.71 24.35 53.25"/><polyline class="cls-10" points="4.35 0 24.35 0 44.35 0"/><polyline class="cls-10" points="4.35 52.25 24.35 52.25 44.35 52.25"/><path class="cls-9" d="M8.91,32.5V27a2,2,0,0,0-2.16-2.34A2.09,2.09,0,0,0,4.53,27V32.5H3.23V19.68h1.3v4.93A3.17,3.17,0,0,1,7,23.53a3,3,0,0,1,3.18,3.28V32.5Z"/></g></g></svg>