<svg xmlns="http://www.w3.org/2000/svg" viewBox="0 0 259.22 347.12"><defs><style>.cls-1{fill:#b4b4b5;}.cls-10,.cls-12,.cls-13,.cls-2,.cls-3,.cls-4,.cls-7,.cls-8{fill:none;}.cls-2{stroke:#c8c9ca;}.cls-12,.cls-13,.cls-2,.cls-3,.cls-4,.cls-6,.cls-7{stroke-miterlimit:10;}.cls-3{stroke:#b4b4b5;stroke-dasharray:6 6;}.cls-3,.cls-8{stroke-width:2px;}.cls-4,.cls-8{stroke:#e50012;}.cls-5{fill:#ffecb5;}.cls-6{fill:#f7b52c;}.cls-12,.cls-13,.cls-6{stroke:#f7b52c;}.cls-7{stroke:#fff;}.cls-8{stroke-linecap:round;stroke-linejoin:round;stroke-dasharray:0 5;}.cls-9{fill:#e50012;}.cls-11{fill:#fff;}.cls-12{stroke-dasharray:3 3;}.cls-14{fill:#231815;}</style></defs><title>アセット 40</title><g id="レイヤー_2" data-name="レイヤー 2"><g id="photo"><path class="cls-1" d="M225.08,100.68a6,6,0,0,1,6,6v101a6,6,0,0,1-6,6h-169a6,6,0,0,1-6-6v-101a6,6,0,0,1,6-6h169m0-2h-169a8,8,0,0,0-8,8v101a8,8,0,0,0,8,8h169a8,8,0,0,0,8-8v-101a8,8,0,0,0-8-8Z"/><rect class="cls-2" x="148.41" y="107.82" width="72.54" height="5.06" rx="2.37" ry="2.37"/><rect class="cls-2" x="148.41" y="118.64" width="72.54" height="5.06" rx="2.37" ry="2.37"/><rect class="cls-2" x="148.41" y="129.46" width="72.54" height="5.06" rx="2.37" ry="2.37"/><rect class="cls-2" x="148.41" y="178.44" width="72.54" height="5.06" rx="2.37" ry="2.37"/><rect class="cls-2" x="148.41" y="189.26" width="72.54" height="5.06" rx="2.37" ry="2.37"/><rect class="cls-2" x="148.41" y="200.08" width="72.54" height="5.06" rx="2.37" ry="2.37"/><rect class="cls-2" x="60.18" y="107.82" width="72.54" height="5.06" rx="2.37" ry="2.37" transform="translate(192.9 220.7) rotate(180)"/><rect class="cls-2" x="60.18" y="118.64" width="72.54" height="5.06" rx="2.37" ry="2.37" transform="translate(192.9 242.34) rotate(-180)"/><rect class="cls-2" x="60.18" y="129.46" width="72.54" height="5.06" rx="2.37" ry="2.37" transform="translate(192.9 263.98) rotate(180)"/><rect class="cls-2" x="60.18" y="178.44" width="72.54" height="5.06" rx="2.37" ry="2.37" transform="translate(192.9 361.94) rotate(-180)"/><rect class="cls-2" x="60.18" y="189.26" width="72.54" height="5.06" rx="2.37" ry="2.37" transform="translate(192.9 383.58) rotate(-180)"/><rect class="cls-2" x="60.18" y="200.08" width="72.54" height="5.06" rx="2.37" ry="2.37" transform="translate(192.9 405.22) rotate(-180)"/><line class="cls-3" x1="140.56" y1="105.1" x2="140.56" y2="211.03"/><path class="cls-4" d="M74.43,158.31h54.83c2.3,1.44,6.5,2.41,11.31,2.41s9-1,11.3-2.41H206.7a2.37,2.37,0,0,0,2.37-2.36v-.33a2.38,2.38,0,0,0-2.37-2.37H151.87c-2.3-1.44-6.5-2.4-11.3-2.4s-9,1-11.31,2.4H74.43a2.38,2.38,0,0,0-2.37,2.37V156A2.37,2.37,0,0,0,74.43,158.31Z"/><path class="cls-5" d="M140.58,43.54,118.05,4.8A8.44,8.44,0,0,0,111.47,1H74.82a5.14,5.14,0,0,0-4.95,4.33L64.76,43.54"/><path class="cls-5" d="M140.58,43.54,163.12,4.8A8.44,8.44,0,0,1,169.69,1h36.66a5.15,5.15,0,0,1,5,4.33l5.11,38.19"/><polygon class="cls-1" points="140.56 47.25 50.08 47.25 50.08 42.25 140.56 42.25 231.08 42.25 231.08 47.25 140.56 47.25"/><rect class="cls-6" x="8.72" y="286.62" width="60" height="60"/><line class="cls-7" x1="20.86" y1="316.62" x2="55.86" y2="316.62"/></g><g id="design"><polyline class="cls-8" points="24.35 103.68 24.35 164.26 24.35 211.76"/><polygon class="cls-9" points="24.35 98.68 20.14 108.22 28.57 108.22 24.35 98.68"/><polygon class="cls-9" points="24.35 216.76 28.57 207.22 20.14 207.22 24.35 216.76"/><polyline class="cls-8" points="53.06 238.76 124.56 238.76 228.06 238.76"/><polygon class="cls-9" points="48.06 238.76 57.61 242.98 57.61 234.55 48.06 238.76"/><polygon class="cls-9" points="233.06 238.76 223.52 234.55 223.52 242.98 233.06 238.76"/><polyline class="cls-10" points="5.57 98.68 25.57 98.68 45.56 98.68"/><polyline class="cls-10" points="3.06 216.76 25.57 216.76 48.06 216.76"/><polyline class="cls-10" points="48.06 261.26 48.06 238.76 48.06 216.26"/><polyline class="cls-10" points="233.06 258.76 233.06 238.76 233.06 218.76"/><rect class="cls-11" x="10.35" y="140.89" width="30" height="25"/><rect class="cls-11" x="116.4" y="223.76" width="43.75" height="30"/><path class="cls-9" d="M6.39,155.06v2H5.11v-2H0v-1.17l4.63-9.62H6l-4.62,9.62H5.11v-3.64H6.39v3.64H8v1.17Z"/><path class="cls-9" d="M14.28,157.2a3.38,3.38,0,0,1-3.52-3.53v-6a3.38,3.38,0,0,1,3.52-3.53,3.38,3.38,0,0,1,3.51,3.53v6A3.38,3.38,0,0,1,14.28,157.2Zm2.21-9.43a2.23,2.23,0,1,0-4.43,0v5.83a2.23,2.23,0,1,0,4.43,0Z"/><path class="cls-9" d="M27.67,157.09v-3.27a1.32,1.32,0,1,0-2.63-.09v3.36h-.78v-3.27A1.24,1.24,0,0,0,23,152.41a1.25,1.25,0,0,0-1.33,1.41v3.27h-.78v-5.31h.78v.58a2,2,0,0,1,1.5-.65,1.75,1.75,0,0,1,1.63.89,2.06,2.06,0,0,1,1.75-.89,2,2,0,0,1,1.38.5,2,2,0,0,1,.57,1.48v3.4Z"/><path class="cls-9" d="M37.7,157.09v-3.27a1.32,1.32,0,1,0-2.63-.09v3.36h-.78v-3.27A1.24,1.24,0,0,0,33,152.41a1.25,1.25,0,0,0-1.33,1.41v3.27h-.77v-5.31h.77v.58a2,2,0,0,1,1.51-.65,1.77,1.77,0,0,1,1.63.89,2,2,0,0,1,1.75-.89,2,2,0,0,1,1.37.5,2,2,0,0,1,.57,1.48v3.4Z"/><path class="cls-9" d="M125.41,246.37a3.41,3.41,0,0,1-3.56-3.69,6.32,6.32,0,0,1,.81-2.88l3.15-6.36h1.33l-2.86,5.76a3.19,3.19,0,0,1,1.35-.27,3.34,3.34,0,0,1,3.33,3.64A3.5,3.5,0,0,1,125.41,246.37Zm0-6.34c-1.37,0-2.26,1-2.26,2.6a2.28,2.28,0,1,0,2.26-2.6Z"/><path class="cls-9" d="M135.67,246.37a3.38,3.38,0,0,1-3.51-3.53v-6a3.51,3.51,0,1,1,7,0v6A3.38,3.38,0,0,1,135.67,246.37Zm2.22-9.43a2.23,2.23,0,1,0-4.43,0v5.83a2.23,2.23,0,1,0,4.43,0Z"/><path class="cls-9" d="M149.07,246.26V243a1.32,1.32,0,1,0-2.64-.09v3.36h-.78V243c0-.94-.5-1.42-1.3-1.42A1.26,1.26,0,0,0,143,243v3.27h-.78V241H143v.58a2,2,0,0,1,1.5-.65,1.74,1.74,0,0,1,1.63.89,2,2,0,0,1,1.75-.89,1.94,1.94,0,0,1,1.37.5,2,2,0,0,1,.58,1.48v3.4Z"/><path class="cls-9" d="M159.1,246.26V243a1.32,1.32,0,1,0-2.63-.09v3.36h-.78V243a1.24,1.24,0,0,0-1.31-1.42,1.26,1.26,0,0,0-1.33,1.42v3.27h-.78V241h.78v.58a2,2,0,0,1,1.5-.65,1.73,1.73,0,0,1,1.63.89,2,2,0,0,1,1.75-.89,1.84,1.84,0,0,1,1.95,2v3.4Z"/><path class="cls-12" d="M68.07,316.62H258.72"/><path class="cls-13" d="M68.72,346.62h190v-60h-190"/><line class="cls-10" x1="65.47" y1="291.62" x2="65.47" y2="311.5"/><line class="cls-10" x1="65.47" y1="322" x2="65.47" y2="341.88"/><path class="cls-11" d="M32.73,301H28.25c.74,2.67,2.19,4.71,4.71,5.58a4.91,4.91,0,0,0-.83,1.09,8.18,8.18,0,0,1-4.72-5.41,7.91,7.91,0,0,1-4.76,5.41,3.76,3.76,0,0,0-.83-1,7.14,7.14,0,0,0,4.64-5.7H22v-1.17h4.6c.11-1.15.09-2.32.11-3.38l1.53.09c0,.12-.11.21-.3.23,0,1,0,2-.13,3.06h4.89Z"/><path class="cls-11" d="M44.26,301a17.46,17.46,0,0,1-3.47.69,4.25,4.25,0,0,0,1.86,1.68l-.65.94a3.4,3.4,0,0,0-2-.52,5.35,5.35,0,0,0-.58,0l-.26-.9h.43a6.14,6.14,0,0,1,.78,0,4.44,4.44,0,0,1-.79-1.13c-.87.06-1.83.09-2.57.09s-1.57,0-2.33,0v-1c.68,0,1.62,0,2.3,0s1.54,0,2.26-.08c-.11-.33-.29-.91-.4-1.36-.38,0-1,.06-2.29.06-.4,0-.78,0-1.11,0v-1c.5,0,1,0,1.48,0s1.27,0,1.73,0c-.11-.53-.22-1.17-.3-1.8l1.59,0c0,.13-.12.23-.32.28,0,.44.11.94.19,1.39a13.54,13.54,0,0,0,3.12-.65l.25,1a15.43,15.43,0,0,1-3.15.61c.12.52.25,1,.37,1.37A17.67,17.67,0,0,0,44,300Zm-4.85,6.28c-2,0-3.48-.69-3.48-2.06a2.49,2.49,0,0,1,1.35-1.91l.78.74a1.5,1.5,0,0,0-.92,1.13c0,.72.91,1,2.26,1,.87,0,2,0,2.78-.12l0,1.1c-.54,0-1.26.08-2.25.08Z"/><path class="cls-11" d="M55.62,299.46a23.26,23.26,0,0,1-3.79.59A3.91,3.91,0,0,0,54,302.92l-.84,1a3.67,3.67,0,0,0-2.64-.82l-.27-1a10.61,10.61,0,0,1,1.27.15,6.57,6.57,0,0,1-.92-2.15c-.5,0-1.13.06-1.79.06s-2.09,0-2.89,0V299c.7,0,1.65,0,2.91,0,.5,0,1.06,0,1.5-.06-.15-.66-.27-1.47-.39-2.32l1.68,0c0,.15-.12.26-.32.29a16.46,16.46,0,0,0,.26,1.92,19.33,19.33,0,0,0,3.84-.67Zm-2.21,7.75H51.19c-2.71,0-4.33-1-4.33-2.49a2.85,2.85,0,0,1,1.06-2l.9.68a1.76,1.76,0,0,0-.75,1.3c0,1,1.36,1.39,3.16,1.39,1,0,1.66,0,2.28-.06Z"/><path class="cls-11" d="M22.68,334.36a14.87,14.87,0,0,1-1.57.84,5.58,5.58,0,0,0-.65-.93,12.73,12.73,0,0,0,5-3.77l1.56.07a.3.3,0,0,1-.28.19,13.08,13.08,0,0,0,5,3.35,5,5,0,0,0-.71,1,14.13,14.13,0,0,1-1.57-.83v3.34H28.31v-.35H23.79v.39H22.68Zm-.59-5.71V330H21v-2.41h4.45v-1.17l1.44.08c0,.11-.09.17-.28.2v.89h4.54V330H30v-1.37Zm3.1.94a.29.29,0,0,1-.3.11,11.08,11.08,0,0,1-3,2.48,6.43,6.43,0,0,0-.74-.85,8,8,0,0,0,2.8-2.22Zm-1.4,6.7h4.52v-1.71H23.79Zm4.5-2.72a11.6,11.6,0,0,1-2.26-2,11.18,11.18,0,0,1-2.16,2ZM30,332.13A17,17,0,0,0,27,329.76l.8-.66a17,17,0,0,1,3.12,2.28Z"/><path class="cls-11" d="M51.78,336.52h5v.87h-11v-.87h4.93v-.59H46.79v-.76h3.89v-.5H47.26v-3.05h8v3.05H51.78v.5h3.95v.76H51.78Zm4.93-6.23v.83H45.79v-.83ZM55,326.9v2.91H47.45V326.9Zm-6.71,5.36v.57h2.35v-.57Zm0,1.77h2.35v-.58H48.33Zm5.57-6v-.51H48.55V328Zm0,1.14v-.53H48.55v.53Zm.21,3.65v-.57H51.78v.57Zm0,1.2v-.58H51.78V334Z"/><path class="cls-14" d="M107.54,306.92v2H105v-2H99.22v-2.46l4.88-9.77h2.84l-4.88,9.77h3v-2.67h2.5v2.67h1.3v2.46Z"/><path class="cls-14" d="M115.9,309.06a4.11,4.11,0,0,1-4.34-4.24v-6a4.33,4.33,0,0,1,8.66,0v6A4.09,4.09,0,0,1,115.9,309.06Zm1.72-10.21a1.74,1.74,0,1,0-3.46,0v5.95a1.74,1.74,0,1,0,3.46,0Z"/><path class="cls-14" d="M138.75,307l-.88.9-5.55-5.54-5.52,5.54-.88-.9,5.52-5.52-5.52-5.53.88-.9,5.52,5.54,5.55-5.54.88.88-5.53,5.55Z"/><path class="cls-14" d="M148.72,309.06a4.16,4.16,0,0,1-4.44-4.4,8.78,8.78,0,0,1,1.2-3.8l3-6.17h2.84l-3,5.89a2.64,2.64,0,0,1,1.06-.19,3.91,3.91,0,0,1,3.74,4.23A4.2,4.2,0,0,1,148.72,309.06Zm0-6.5a2.1,2.1,0,1,0,1.84,2.08A1.85,1.85,0,0,0,148.72,302.56Z"/><path class="cls-14" d="M160.62,309.06a4.11,4.11,0,0,1-4.34-4.24v-6a4.33,4.33,0,0,1,8.66,0v6A4.09,4.09,0,0,1,160.62,309.06Zm1.72-10.21a1.74,1.74,0,1,0-3.46,0v5.95a1.74,1.74,0,1,0,3.46,0Z"/><path class="cls-14" d="M183.47,307l-.88.9L177,302.32l-5.52,5.54-.88-.9,5.53-5.52-5.53-5.53.88-.9,5.52,5.54,5.55-5.54.88.88L178,301.44Z"/><path class="cls-14" d="M195.48,308.94v-6.36a1.7,1.7,0,1,0-3.38,0v6.36h-2.6V294.69h2.6v4.78a3.44,3.44,0,0,1,2.5-1.08c2.28,0,3.48,1.61,3.48,3.81v6.74Z"/><path class="cls-14" d="M204.63,309.81a7.92,7.92,0,0,1,0-9.22h.68a7.45,7.45,0,0,0-1.43,4.64,7.54,7.54,0,0,0,1.43,4.58Z"/><path class="cls-14" d="M214.17,308.94v-3.78a1,1,0,1,0-2.08,0v3.82h-1.56v-3.78a1,1,0,1,0-2.07,0v3.78H206.9v-6.25h1.52v.57a2.18,2.18,0,0,1,1.56-.64,1.94,1.94,0,0,1,1.66.79,2.37,2.37,0,0,1,1.87-.79,2.17,2.17,0,0,1,1.53.55,2.36,2.36,0,0,1,.69,1.77v4Z"/><path class="cls-14" d="M224.8,308.94v-3.78a1,1,0,1,0-2.08,0v3.82h-1.56v-3.78a1,1,0,1,0-2.07,0v3.78h-1.56v-6.25h1.52v.57a2.19,2.19,0,0,1,1.56-.64,1.94,1.94,0,0,1,1.66.79,2.37,2.37,0,0,1,1.87-.79,2.15,2.15,0,0,1,1.53.55,2.33,2.33,0,0,1,.69,1.77v4Z"/><path class="cls-14" d="M229.86,300.59a8,8,0,0,1,0,9.22h-.68a8.19,8.19,0,0,0,0-9.22Z"/><path class="cls-14" d="M129.73,339.06c-2.52,0-4.56-1.5-4.56-4.26a3.72,3.72,0,0,1,1.78-3.21,3.52,3.52,0,0,1-1.6-3,4.38,4.38,0,0,1,8.74,0,3.52,3.52,0,0,1-1.6,3,3.73,3.73,0,0,1,1.8,3.21C134.29,337.56,132.25,339.06,129.73,339.06Zm0-6.28a2,2,0,1,0,2,2A2,2,0,0,0,129.73,332.78Zm0-5.87a1.8,1.8,0,0,0,0,3.6,1.8,1.8,0,0,0,0-3.6Z"/><path class="cls-14" d="M155.31,330.5c-1.26,2.26-3.1,3.46-5.2,3.46a6,6,0,0,1-4.46-2.1,4.64,4.64,0,0,0-3.48-1.7,4.54,4.54,0,0,0-3.88,2.7l-1.3-.68c1.26-2.26,3.1-3.47,5.2-3.47a6.05,6.05,0,0,1,4.46,2.11,4.71,4.71,0,0,0,3.48,1.7,4.55,4.55,0,0,0,3.88-2.71Z"/><path class="cls-14" d="M158.33,338.94V336.6l5.32-6.18a2.49,2.49,0,0,0,.74-1.73,1.73,1.73,0,1,0-3.46,0h-2.6a4,4,0,0,1,4.34-4.16,4,4,0,0,1,4.32,4.14,4.58,4.58,0,0,1-1.52,3.27l-4,4.62H167v2.34Z"/><path class="cls-14" d="M174.45,339.06a4.11,4.11,0,0,1-4.34-4.24v-6a4.33,4.33,0,0,1,8.66,0v6A4.09,4.09,0,0,1,174.45,339.06Zm1.72-10.21a1.74,1.74,0,1,0-3.46,0v5.95a1.74,1.74,0,1,0,3.46,0Z"/><path class="cls-14" d="M185.08,339.81a7.92,7.92,0,0,1,0-9.22h.68a7.45,7.45,0,0,0-1.43,4.64,7.54,7.54,0,0,0,1.43,4.58Z"/><path class="cls-14" d="M194.61,338.94v-3.78a1,1,0,1,0-2.07,0v3.82H191v-3.78a1,1,0,1,0-2.08,0v3.78h-1.56v-6.25h1.53v.57a2.16,2.16,0,0,1,1.56-.64,1.94,1.94,0,0,1,1.65.79,2.39,2.39,0,0,1,1.87-.79,2.17,2.17,0,0,1,1.54.55,2.36,2.36,0,0,1,.68,1.77v4Z"/><path class="cls-14" d="M200.22,338.94a1.7,1.7,0,0,1-1.83-1.79V330.4H200v6.65c0,.38.16.57.56.57h.6v1.32Z"/><path class="cls-14" d="M204.17,330.59a8,8,0,0,1,0,9.22h-.68a8.15,8.15,0,0,0,0-9.22Z"/><polyline class="cls-8" points="24.35 5 24.35 4 24.35 46.25"/><polygon class="cls-9" points="24.35 0 20.14 9.54 28.57 9.54 24.35 0"/><polygon class="cls-9" points="24.35 47.25 28.57 37.71 20.14 37.71 24.35 47.25"/><polyline class="cls-10" points="4.35 0 24.35 0 44.35 0"/><polyline class="cls-10" points="4.35 46.25 24.35 46.25 44.35 46.25"/><polyline class="cls-10" points="3.06 47.25 25.57 47.25 48.06 47.25"/><path class="cls-9" d="M8.91,28.5V23a2,2,0,0,0-2.16-2.34A2.09,2.09,0,0,0,4.53,23V28.5H3.23V15.68h1.3v4.93A3.17,3.17,0,0,1,7,19.53a3,3,0,0,1,3.18,3.28V28.5Z"/></g></g></svg>