<svg xmlns="http://www.w3.org/2000/svg" viewBox="0 0 251 338.37"><defs><style>.cls-1{fill:#b4b4b5;}.cls-11,.cls-13,.cls-14,.cls-2,.cls-3,.cls-4,.cls-7,.cls-9{fill:none;}.cls-2{stroke:#c8c9ca;}.cls-13,.cls-14,.cls-2,.cls-3,.cls-4,.cls-6,.cls-7{stroke-miterlimit:10;}.cls-3{stroke:#b4b4b5;stroke-dasharray:6 6;}.cls-3,.cls-9{stroke-width:2px;}.cls-4,.cls-9{stroke:#e50012;}.cls-5{fill:#ffecb5;}.cls-6{fill:#cc1b1c;}.cls-13,.cls-14,.cls-6{stroke:#cc1b1c;}.cls-7{stroke:#fff;}.cls-8{fill:#231815;}.cls-9{stroke-linecap:round;stroke-linejoin:round;stroke-dasharray:0 5;}.cls-10{fill:#e50012;}.cls-12{fill:#fff;}.cls-13{stroke-dasharray:3 3;}</style></defs><title>アセット 39</title><g id="レイヤー_2" data-name="レイヤー 2"><g id="photo"><path class="cls-1" d="M208,106a6,6,0,0,1,6,6v87a6,6,0,0,1-6,6H71a6,6,0,0,1-6-6V112a6,6,0,0,1,6-6H208m0-2H71a8,8,0,0,0-8,8v87a8,8,0,0,0,8,8H208a8,8,0,0,0,8-8V112a8,8,0,0,0-8-8Z"/><rect class="cls-2" x="145.91" y="112.18" width="59.64" height="4.44" rx="2.03" ry="2.03"/><rect class="cls-2" x="145.91" y="121.68" width="59.64" height="4.44" rx="2.03" ry="2.03"/><rect class="cls-2" x="145.91" y="131.18" width="59.64" height="4.44" rx="2.03" ry="2.03"/><rect class="cls-2" x="145.91" y="174.18" width="59.64" height="4.44" rx="2.03" ry="2.03"/><rect class="cls-2" x="145.91" y="183.68" width="59.64" height="4.44" rx="2.03" ry="2.03"/><rect class="cls-2" x="145.91" y="193.18" width="59.64" height="4.44" rx="2.03" ry="2.03"/><rect class="cls-2" x="73.37" y="112.18" width="59.64" height="4.44" rx="2.03" ry="2.03" transform="translate(206.39 228.8) rotate(180)"/><rect class="cls-2" x="73.37" y="121.68" width="59.64" height="4.44" rx="2.03" ry="2.03" transform="translate(206.39 247.8) rotate(180)"/><rect class="cls-2" x="73.37" y="131.18" width="59.64" height="4.44" rx="2.03" ry="2.03" transform="translate(206.39 266.8) rotate(180)"/><rect class="cls-2" x="73.37" y="174.18" width="59.64" height="4.44" rx="2.03" ry="2.03" transform="translate(206.39 352.8) rotate(-180)"/><rect class="cls-2" x="73.37" y="183.68" width="59.64" height="4.44" rx="2.03" ry="2.03" transform="translate(206.39 371.8) rotate(-180)"/><rect class="cls-2" x="73.37" y="193.18" width="59.64" height="4.44" rx="2.03" ry="2.03" transform="translate(206.39 390.8) rotate(180)"/><line class="cls-3" x1="139.46" y1="109.38" x2="139.46" y2="202.38"/><path class="cls-4" d="M85.17,156.51h42.49c2.18,1.62,6.64,2.73,11.8,2.73s9.63-1.11,11.81-2.73h42.49a2,2,0,0,0,2-2v-.38a2,2,0,0,0-2-2H151.27c-2.18-1.62-6.64-2.73-11.81-2.73s-9.62,1.11-11.8,2.73H85.17a2,2,0,0,0-2,2v.38A2,2,0,0,0,85.17,156.51Z"/><path class="cls-5" d="M140.81,35,122.25,3.11A6.94,6.94,0,0,0,116.84,0H86.67a4.25,4.25,0,0,0-4.08,3.57L78.39,35"/><path class="cls-5" d="M140.81,35,159.36,3.11A6.94,6.94,0,0,1,164.77,0h30.17A4.25,4.25,0,0,1,199,3.57L203.23,35"/><polygon class="cls-1" points="140.79 38.5 66.31 38.5 66.31 33.5 140.79 33.5 215.31 33.5 215.31 38.5 140.79 38.5"/><rect class="cls-6" x="0.5" y="277.87" width="60" height="60"/><line class="cls-7" x1="12.64" y1="307.87" x2="47.64" y2="307.87"/></g><g id="design"><path class="cls-8" d="M88.34,300.31c-2.32,0-4.5-1.22-4.54-4.21h2.6a1.93,1.93,0,0,0,3.86-.11,1.83,1.83,0,0,0-2-2h-.38v-2.26h.38a1.63,1.63,0,0,0,1.8-1.78,1.75,1.75,0,1,0-3.5-.1H84a4.36,4.36,0,0,1,8.7,0A3,3,0,0,1,91,292.82a3.4,3.4,0,0,1,1.84,3.24C92.86,298.91,90.78,300.31,88.34,300.31Z"/><path class="cls-8" d="M103.44,299.15a4.29,4.29,0,0,1-3.14,1.16,4.45,4.45,0,0,1-3.18-1.14,4.34,4.34,0,0,1-1.16-3h2.6c.14,1.12.66,1.76,1.74,1.76a1.67,1.67,0,0,0,1.24-.46,3,3,0,0,0,.56-2.13c0-1.64-.48-2.56-1.74-2.56A1.66,1.66,0,0,0,98.64,294H96.26v-8h8.12v2.34H98.62v3.06a3.27,3.27,0,0,1,2.14-.72,3.67,3.67,0,0,1,2.66,1,5,5,0,0,1,1.28,3.8A4.73,4.73,0,0,1,103.44,299.15Z"/><path class="cls-8" d="M123.1,298.21l-.88.9-5.54-5.55-5.52,5.55-.88-.9,5.52-5.53-5.52-5.52.88-.9,5.52,5.54,5.54-5.54.88.88-5.52,5.54Z"/><path class="cls-8" d="M136.3,299.15a4.29,4.29,0,0,1-3.14,1.16,4.45,4.45,0,0,1-3.18-1.14,4.34,4.34,0,0,1-1.16-3h2.6c.14,1.12.66,1.76,1.74,1.76a1.67,1.67,0,0,0,1.24-.46,3,3,0,0,0,.56-2.13c0-1.64-.48-2.56-1.74-2.56A1.66,1.66,0,0,0,131.5,294h-2.38v-8h8.12v2.34h-5.76v3.06a3.27,3.27,0,0,1,2.14-.72,3.67,3.67,0,0,1,2.66,1,5,5,0,0,1,1.28,3.8A4.73,4.73,0,0,1,136.3,299.15Z"/><path class="cls-8" d="M140.72,300.19v-2.34l5.32-6.19a2.45,2.45,0,0,0,.74-1.72,1.73,1.73,0,1,0-3.46,0h-2.6a4,4,0,0,1,4.34-4.16,4,4,0,0,1,4.32,4.14,4.54,4.54,0,0,1-1.52,3.26l-4,4.63h5.5v2.34Z"/><path class="cls-8" d="M152.76,300.19v-3h3v3Z"/><path class="cls-8" d="M166.72,299.15a4.29,4.29,0,0,1-3.14,1.16,4.45,4.45,0,0,1-3.18-1.14,4.34,4.34,0,0,1-1.16-3h2.6c.14,1.12.66,1.76,1.74,1.76a1.67,1.67,0,0,0,1.24-.46,3,3,0,0,0,.56-2.13c0-1.64-.48-2.56-1.74-2.56a1.66,1.66,0,0,0-1.72,1.16h-2.38v-8h8.12v2.34H161.9v3.06a3.27,3.27,0,0,1,2.14-.72,3.67,3.67,0,0,1,2.66,1,5,5,0,0,1,1.28,3.8A4.73,4.73,0,0,1,166.72,299.15Z"/><path class="cls-8" d="M186.38,298.21l-.88.9L180,293.56l-5.52,5.55-.88-.9,5.52-5.53-5.52-5.52.88-.9L180,291.8l5.54-5.54.88.88-5.52,5.54Z"/><path class="cls-8" d="M198.4,300.19v-6.37a1.7,1.7,0,1,0-3.38,0v6.37h-2.6V285.94H195v4.78a3.44,3.44,0,0,1,2.5-1.08c2.28,0,3.48,1.6,3.48,3.8v6.75Z"/><path class="cls-8" d="M207.55,301.05a7.23,7.23,0,0,1-1.48-4.58,7.36,7.36,0,0,1,1.48-4.63h.68a8.13,8.13,0,0,0,0,9.21Z"/><path class="cls-8" d="M217.08,300.19v-3.78a1,1,0,1,0-2.07,0v3.82h-1.56v-3.78a1,1,0,1,0-2.08,0v3.78h-1.56v-6.25h1.53v.57a2.15,2.15,0,0,1,1.55-.64,1.94,1.94,0,0,1,1.66.79,2.39,2.39,0,0,1,1.87-.79,2.19,2.19,0,0,1,1.54.55,2.36,2.36,0,0,1,.68,1.77v4Z"/><path class="cls-8" d="M227.71,300.19v-3.78a1,1,0,1,0-2.07,0v3.82h-1.56v-3.78a1,1,0,1,0-2.08,0v3.78h-1.56v-6.25H222v.57a2.18,2.18,0,0,1,1.56-.64,1.92,1.92,0,0,1,1.65.79,2.39,2.39,0,0,1,1.87-.79,2.17,2.17,0,0,1,1.54.55,2.36,2.36,0,0,1,.68,1.77v4Z"/><path class="cls-8" d="M232.77,291.84a7.95,7.95,0,0,1,0,9.21h-.68a8.13,8.13,0,0,0,0-9.21Z"/><path class="cls-8" d="M126.54,329.15a4.29,4.29,0,0,1-3.14,1.16,4.45,4.45,0,0,1-3.18-1.14,4.34,4.34,0,0,1-1.16-3h2.6c.14,1.12.66,1.76,1.74,1.76a1.67,1.67,0,0,0,1.24-.46,3,3,0,0,0,.56-2.13c0-1.64-.48-2.56-1.74-2.56a1.66,1.66,0,0,0-1.72,1.16h-2.38v-8h8.12v2.34h-5.76v3.06a3.27,3.27,0,0,1,2.14-.72,3.67,3.67,0,0,1,2.66,1,5,5,0,0,1,1.28,3.8A4.73,4.73,0,0,1,126.54,329.15Z"/><path class="cls-8" d="M149,321.74c-1.26,2.27-3.1,3.47-5.21,3.47a6,6,0,0,1-4.46-2.11,4.68,4.68,0,0,0-3.48-1.7,4.56,4.56,0,0,0-3.88,2.7l-1.3-.67c1.26-2.27,3.1-3.47,5.2-3.47a6,6,0,0,1,4.46,2.1,4.71,4.71,0,0,0,3.48,1.7,4.57,4.57,0,0,0,3.89-2.7Z"/><path class="cls-8" d="M155.74,330.19V318.74l-2.9,2.52v-2.8l2.9-2.52h2.6v14.25Z"/><path class="cls-8" d="M168.08,330.31a4.11,4.11,0,0,1-4.34-4.25v-6a4.33,4.33,0,0,1,8.66,0v6A4.09,4.09,0,0,1,168.08,330.31Zm1.72-10.21a1.74,1.74,0,1,0-3.46,0v5.95a1.74,1.74,0,1,0,3.46,0Z"/><path class="cls-8" d="M178.71,331.05a7.23,7.23,0,0,1-1.48-4.58,7.36,7.36,0,0,1,1.48-4.63h.68a8.13,8.13,0,0,0,0,9.21Z"/><path class="cls-8" d="M188.25,330.19v-3.78a1,1,0,1,0-2.08,0v3.82h-1.56v-3.78a1,1,0,1,0-2.07,0v3.78H181v-6.25h1.52v.57a2.18,2.18,0,0,1,1.56-.64,1.94,1.94,0,0,1,1.66.79,2.37,2.37,0,0,1,1.87-.79,2.17,2.17,0,0,1,1.53.55,2.36,2.36,0,0,1,.68,1.77v4Z"/><path class="cls-8" d="M193.85,330.19A1.7,1.7,0,0,1,192,328.4v-6.75h1.56v6.65c0,.38.15.57.55.57h.6v1.32Z"/><path class="cls-8" d="M197.8,321.84a7.95,7.95,0,0,1,0,9.21h-.68a8.13,8.13,0,0,0,0-9.21Z"/><polyline class="cls-9" points="39.25 108.25 39.25 155.51 39.25 203.75"/><polygon class="cls-10" points="39.25 103.01 35.03 112.56 43.46 112.56 39.25 103.01"/><polygon class="cls-10" points="39.25 208.01 43.46 198.47 35.03 198.47 39.25 208.01"/><polyline class="cls-9" points="73.96 230.01 139.46 230.01 212.02 230.01"/><polygon class="cls-10" points="62.96 230.01 72.51 234.23 72.51 225.8 62.96 230.01"/><polygon class="cls-10" points="215.96 230.01 206.42 225.8 206.42 234.23 215.96 230.01"/><polyline class="cls-11" points="20.46 103.01 40.46 103.01 60.46 103.01"/><polyline class="cls-11" points="17.96 208.01 40.46 208.01 62.96 208.01"/><polyline class="cls-11" points="62.96 252.51 62.96 230.01 62.96 207.51"/><polyline class="cls-11" points="215.96 250.01 215.96 230.01 215.96 210.01"/><rect class="cls-12" x="25.24" y="140.87" width="30" height="26.21"/><rect class="cls-12" x="106.96" y="215.01" width="65" height="30"/><path class="cls-10" d="M18.7,157.8c-2,0-3.66-1.06-3.77-3.38h1.3a2.26,2.26,0,0,0,2.47,2.23,2.35,2.35,0,0,0,2.46-2.48,2.23,2.23,0,0,0-2.52-2.49h-.27v-1.13h.27a2.07,2.07,0,0,0,2.29-2.33,2.15,2.15,0,0,0-2.23-2.34A2.18,2.18,0,0,0,16.39,148H15.1a3.41,3.41,0,0,1,3.6-3.3,3.33,3.33,0,0,1,3.53,3.48,2.87,2.87,0,0,1-1.73,2.84,3,3,0,0,1,2,3.13A3.47,3.47,0,0,1,18.7,157.8Z"/><path class="cls-10" d="M31.77,156.85a3.49,3.49,0,0,1-2.56,1,3.6,3.6,0,0,1-2.58-.92,3.44,3.44,0,0,1-.89-2.23H27a2,2,0,0,0,2.18,2,2.24,2.24,0,0,0,1.58-.59,3.57,3.57,0,0,0,.71-2.61c0-1.57-.31-3.12-2.16-3.12a2,2,0,0,0-2.13,1.26H26v-6.73h6.48V146H27.21v4.07a3,3,0,0,1,2.31-.88,3,3,0,0,1,2.21.81,4.59,4.59,0,0,1,1.06,3.44A4.46,4.46,0,0,1,31.77,156.85Z"/><path class="cls-10" d="M42.57,157.68V154.4a1.32,1.32,0,1,0-2.64-.08v3.36h-.77V154.4A1.24,1.24,0,0,0,37.85,153a1.25,1.25,0,0,0-1.33,1.41v3.28h-.78v-5.32h.78V153a1.92,1.92,0,0,1,1.5-.65,1.74,1.74,0,0,1,1.63.88,2,2,0,0,1,1.75-.88,1.92,1.92,0,0,1,1.37.49,2,2,0,0,1,.58,1.48v3.41Z"/><path class="cls-10" d="M52.6,157.68V154.4a1.32,1.32,0,1,0-2.63-.08v3.36h-.78V154.4A1.24,1.24,0,0,0,47.88,153a1.25,1.25,0,0,0-1.33,1.41v3.28h-.77v-5.32h.77V153a1.92,1.92,0,0,1,1.5-.65,1.77,1.77,0,0,1,1.64.88,2,2,0,0,1,1.75-.88,2,2,0,0,1,1.37.49,2,2,0,0,1,.57,1.48v3.41Z"/><path class="cls-10" d="M119.51,236.68a3.45,3.45,0,0,1-2.56,1,3.56,3.56,0,0,1-2.57-.92,3.5,3.5,0,0,1-.91-2.23h1.3a2,2,0,0,0,2.18,2,2.21,2.21,0,0,0,1.58-.6,3.56,3.56,0,0,0,.71-2.61c0-1.57-.31-3.11-2.16-3.11a2,2,0,0,0-2.13,1.26h-1.17v-6.74h6.48v1.15H115v4.07a3.45,3.45,0,0,1,4.52-.07,4.6,4.6,0,0,1,1.06,3.44A4.49,4.49,0,0,1,119.51,236.68Z"/><path class="cls-10" d="M123.73,237.51v-1.15l5.06-6.43a2.91,2.91,0,0,0,.72-1.89,2.23,2.23,0,1,0-4.46,0h-1.3a3.34,3.34,0,0,1,3.53-3.48,3.29,3.29,0,0,1,3.53,3.46,3.79,3.79,0,0,1-1,2.59l-4.48,5.73h5.51v1.15Z"/><path class="cls-10" d="M134.39,237.51v-1.69h1.69v1.69Z"/><path class="cls-10" d="M145.86,236.68a3.45,3.45,0,0,1-2.56,1,3.6,3.6,0,0,1-2.58-.92,3.48,3.48,0,0,1-.89-2.23h1.29a2,2,0,0,0,2.18,2,2.25,2.25,0,0,0,1.59-.6,3.6,3.6,0,0,0,.7-2.61c0-1.57-.31-3.11-2.16-3.11a2,2,0,0,0-2.13,1.26h-1.17v-6.74h6.48v1.15H141.3v4.07a3.45,3.45,0,0,1,4.52-.07,4.6,4.6,0,0,1,1.06,3.44A4.45,4.45,0,0,1,145.86,236.68Z"/><path class="cls-10" d="M156.66,237.51v-3.27a1.32,1.32,0,1,0-2.64-.09v3.36h-.77v-3.27a1.24,1.24,0,0,0-1.31-1.42,1.26,1.26,0,0,0-1.33,1.42v3.27h-.78V232.2h.78v.58a2,2,0,0,1,1.5-.65,1.73,1.73,0,0,1,1.63.89,2,2,0,0,1,1.75-.89,1.93,1.93,0,0,1,1.37.5,2,2,0,0,1,.58,1.48v3.4Z"/><path class="cls-10" d="M166.69,237.51v-3.27a1.32,1.32,0,1,0-2.63-.09v3.36h-.78v-3.27a1.24,1.24,0,0,0-1.31-1.42,1.26,1.26,0,0,0-1.33,1.42v3.27h-.77V232.2h.77v.58a2,2,0,0,1,1.5-.65,1.76,1.76,0,0,1,1.64.89,2,2,0,0,1,1.75-.89,1.84,1.84,0,0,1,1.94,2v3.4Z"/><path class="cls-13" d="M59.85,307.87H250.5"/><path class="cls-14" d="M.5,337.87h250v-60H.5"/><line class="cls-11" x1="57.25" y1="282.87" x2="57.25" y2="302.75"/><line class="cls-11" x1="57.25" y1="313.25" x2="57.25" y2="333.13"/><path class="cls-12" d="M24.51,292.25H20c.74,2.67,2.19,4.71,4.71,5.58a4.91,4.91,0,0,0-.83,1.09,8.21,8.21,0,0,1-4.72-5.41,7.91,7.91,0,0,1-4.76,5.41,3.76,3.76,0,0,0-.83-1,7.14,7.14,0,0,0,4.64-5.7H13.81v-1.17h4.6c.11-1.15.09-2.32.11-3.38l1.53.09c0,.12-.11.21-.3.23,0,1,0,2-.13,3.06h4.89Z"/><path class="cls-12" d="M36,292.24a17.46,17.46,0,0,1-3.47.69,4.18,4.18,0,0,0,1.86,1.67l-.65.95a3.4,3.4,0,0,0-2-.53,5.28,5.28,0,0,0-.58,0l-.26-.9h.43c.27,0,.57,0,.78,0a4.21,4.21,0,0,1-.79-1.12c-.87.06-1.83.09-2.57.09s-1.57,0-2.33,0v-1c.68,0,1.62,0,2.3,0s1.54,0,2.26-.08c-.11-.33-.29-.91-.4-1.36-.38,0-1.05.06-2.29.06-.4,0-.78,0-1.11,0v-1c.5,0,1,0,1.48,0s1.27,0,1.73,0c-.11-.53-.22-1.17-.3-1.8l1.59,0c0,.13-.12.23-.32.27.05.45.11.95.19,1.4A13.54,13.54,0,0,0,34.7,289l.25,1a15.43,15.43,0,0,1-3.15.61c.12.52.25,1,.37,1.37a17.67,17.67,0,0,0,3.65-.78Zm-4.85,6.27c-2,0-3.48-.68-3.48-2.05a2.51,2.51,0,0,1,1.35-1.92l.78.75a1.5,1.5,0,0,0-.92,1.13c0,.72.91,1,2.26,1,.87,0,2,0,2.78-.12l-.05,1.1c-.54,0-1.26.07-2.25.07Z"/><path class="cls-12" d="M47.4,290.71a22.29,22.29,0,0,1-3.79.58,3.91,3.91,0,0,0,2.16,2.88l-.84,1a3.67,3.67,0,0,0-2.64-.83l-.27-1a10.61,10.61,0,0,1,1.27.15,6.57,6.57,0,0,1-.92-2.15c-.5,0-1.13.06-1.79.06s-2.09,0-2.89,0v-1.13c.7,0,1.65,0,2.91,0,.5,0,1.06,0,1.5-.06-.15-.66-.27-1.47-.39-2.32l1.68,0c0,.15-.12.25-.32.29a18.92,18.92,0,0,0,.26,1.92,19.33,19.33,0,0,0,3.84-.67Zm-2.21,7.74c-.59,0-1.25,0-2.22,0-2.71,0-4.33-1-4.33-2.49a2.85,2.85,0,0,1,1.06-2l.9.68a1.76,1.76,0,0,0-.75,1.3c0,1,1.36,1.39,3.16,1.39,1,0,1.66,0,2.28-.06Z"/><path class="cls-12" d="M14.46,325.61a14.87,14.87,0,0,1-1.57.84,5.58,5.58,0,0,0-.65-.93,12.73,12.73,0,0,0,5-3.77l1.56.07a.3.3,0,0,1-.28.19,13.08,13.08,0,0,0,5,3.35,5,5,0,0,0-.71,1,14.13,14.13,0,0,1-1.57-.83v3.34H20.09v-.35H15.57v.38H14.46Zm-.59-5.71v1.37H12.76v-2.41h4.45v-1.18l1.44.09c0,.11-.09.17-.28.2v.89h4.54v2.41H21.74V319.9Zm3.1.94a.29.29,0,0,1-.3.11,11.08,11.08,0,0,1-3,2.48,6.43,6.43,0,0,0-.74-.85,8.16,8.16,0,0,0,2.8-2.22Zm-1.4,6.7h4.52v-1.71H15.57Zm4.51-2.72a11.72,11.72,0,0,1-2.27-2,11.18,11.18,0,0,1-2.16,2Zm1.72-1.44A17,17,0,0,0,18.73,321l.8-.66a17,17,0,0,1,3.12,2.28Z"/><path class="cls-12" d="M43.56,327.77h5v.86h-11v-.86h4.93v-.59H38.57v-.76h3.89v-.5H39v-3.05h8v3.05H43.56v.5h3.95v.76H43.56Zm4.93-6.24v.84H37.58v-.84Zm-1.67-3.38v2.9H39.23v-2.9Zm-6.71,5.36v.57h2.35v-.57Zm0,1.77h2.35v-.58H40.11Zm5.57-6v-.51H40.33v.51Zm0,1.14v-.53H40.33v.53Zm.21,3.65v-.57H43.56v.57Zm0,1.2v-.58H43.56v.58Z"/><polyline class="cls-9" points="38.81 5 38.81 8 38.81 36.92"/><polygon class="cls-10" points="38.81 0 34.59 9.54 43.02 9.54 38.81 0"/><polygon class="cls-10" points="38.81 37.92 43.02 28.37 34.59 28.37 38.81 37.92"/><polyline class="cls-11" points="20.02 0 40.02 0 60.02 0"/><polyline class="cls-11" points="17.52 37.92 40.02 37.92 62.52 37.92"/><path class="cls-10" d="M23.36,23.17V17.69a2,2,0,0,0-2.16-2.34A2.09,2.09,0,0,0,19,17.69v5.48h-1.3V10.35H19v4.93a3.15,3.15,0,0,1,2.48-1.08,3,3,0,0,1,3.19,3.28v5.69Z"/></g></g></svg>