<svg xmlns="http://www.w3.org/2000/svg" viewBox="0 0 39.26 50.77"><defs><style>.cls-1{fill:#f7b52c;}.cls-2{fill:#fff;}</style></defs><title>アセット 10</title><g id="レイヤー_2" data-name="レイヤー 2"><g id="mordal__シングル" data-name="mordal１_シングル"><path class="cls-1" d="M39.26,31.15A19.63,19.63,0,0,1,0,31.15C0,16.92,19.63,0,19.63,0S39.26,16.92,39.26,31.15Z"/><path class="cls-2" d="M6.36,33a9.05,9.05,0,0,0,.07,1.27H5.35a9.7,9.7,0,0,0,.06-1.29V25.87c0-.55,0-.86,0-1.2a11,11,0,0,0,1.12,0h1.8a10,10,0,0,0,1.1,0c0,.29,0,.59,0,1v1.54c0,.46,0,.72,0,1-.27,0-.65,0-1,0h-2Zm0-6.86H8.47v-.65H6.36Zm0,1.36H8.47v-.67H6.36ZM8,30.09a6.11,6.11,0,0,0-1,.06v-.93a7.59,7.59,0,0,0,1,.05h2.25a2.92,2.92,0,0,0-.07-.79h1a3,3,0,0,0-.05.63v.16h.49a7.43,7.43,0,0,0,1-.05v.93a6.05,6.05,0,0,0-1-.06H11.2l0,2.76c0,.77-.27,1-1.27,1-.22,0-.48,0-.86,0a3.33,3.33,0,0,0-.23-.93A6,6,0,0,0,9.94,33c.34,0,.42-.08.41-.35l0-2.19a8.64,8.64,0,0,1-3,2.73,3.2,3.2,0,0,0-.59-.76,8.57,8.57,0,0,0,1.81-1.13,6.4,6.4,0,0,0,1.14-1.2ZM14.36,33c0,.86-.25,1.05-1.36,1.05l-.82,0a3.77,3.77,0,0,0-.25-1,8.25,8.25,0,0,0,1.05.08c.36,0,.43,0,.43-.29V28.17H11.33c-.41,0-.76,0-1,0,0-.32,0-.55,0-1V25.68c0-.37,0-.68,0-1a10.29,10.29,0,0,0,1.1,0h1.88a11.05,11.05,0,0,0,1.13,0,10.54,10.54,0,0,0-.05,1.2ZM11.22,26.1h2.19v-.65H11.22Zm0,1.36h2.19v-.67H11.22Z"/><path class="cls-2" d="M18.14,24.92A8.54,8.54,0,0,0,18,26.31c0,.94-.11,3.32-.11,4.06a3,3,0,0,0,.29,1.74,1.76,1.76,0,0,0,1.53.61,2.93,2.93,0,0,0,2.7-1.87,6.72,6.72,0,0,0,.5-1.76,4.18,4.18,0,0,0,1.1.7,6.94,6.94,0,0,1-1.25,2.64,4,4,0,0,1-3.14,1.36,3.33,3.33,0,0,1-1.85-.48c-.7-.48-1-1.26-1-2.64,0-.64,0-1.23.08-4.39,0-.32,0-.54,0-.72a4.62,4.62,0,0,0,0-.65Zm3.35.32a6.88,6.88,0,0,1,1.05,1.48l-.72.4a6,6,0,0,0-1-1.51Zm1.11-.59a6.67,6.67,0,0,1,1,1.42l-.69.41a6.86,6.86,0,0,0-1-1.45Z"/><path class="cls-2" d="M26.66,25.14a5.7,5.7,0,0,0,1.14.07c1,0,2.26-.05,3.32-.14a1.1,1.1,0,0,0,.6-.13l.59.81a2.4,2.4,0,0,0-.55.44A22.85,22.85,0,0,1,28.33,29l0,0a5.34,5.34,0,0,1,2.43-.58c1.82,0,3,.93,3,2.37a2.58,2.58,0,0,1-1.45,2.32,5.21,5.21,0,0,1-2.54.6,3.67,3.67,0,0,1-2-.46,1.47,1.47,0,0,1-.65-1.22,1.56,1.56,0,0,1,1.74-1.42,2.26,2.26,0,0,1,1.84.89,3.1,3.1,0,0,1,.5,1,2.91,2.91,0,0,0,.81-.39,1.59,1.59,0,0,0,.66-1.29c0-.95-.85-1.52-2.22-1.52A6.82,6.82,0,0,0,26,31.19l-.63-1a31,31,0,0,0,4.92-4l.18-.18h0c-.39.05-1.55.13-3.19.19a3.08,3.08,0,0,0-.54.06Zm2.22,6.4c-.44,0-.72.22-.72.56s.55.77,1.46.77a3.8,3.8,0,0,0,.61,0C30,32,29.56,31.54,28.88,31.54Z"/></g></g></svg>