<svg xmlns="http://www.w3.org/2000/svg" viewBox="0 0 83.06 75.53"><defs><style>.cls-1{fill:#e60012;}.cls-2,.cls-5,.cls-6{fill:none;}.cls-2{stroke:#e60012;}.cls-2,.cls-5{stroke-miterlimit:10;stroke-width:2px;}.cls-3{fill:#ffe100;}.cls-4{fill:#e50012;}.cls-5{stroke:#e50012;}</style></defs><title>アセット 22</title><g id="レイヤー_2" data-name="レイヤー 2"><g id="design"><polygon class="cls-1" points="35.78 38.4 12.38 38.38 10.02 55.51 41.53 55.47 35.78 38.4"/><line class="cls-2" y1="55.47" x2="41.53" y2="55.57"/><polygon class="cls-3" points="47.29 38.4 70.69 38.38 73.04 55.51 41.53 55.47 47.29 38.4"/><line class="cls-2" x1="83.06" y1="55.47" x2="41.53" y2="55.57"/><path class="cls-4" d="M11.11,72.93A4.12,4.12,0,0,1,8,74.22,4.15,4.15,0,0,1,5,73c-1.12-1.12-1.1-2.39-1.1-4.58S3.86,65,5,63.85a4.11,4.11,0,0,1,3-1.22,4,4,0,0,1,4.15,3.54H10.38a2.33,2.33,0,0,0-2.41-2,2.3,2.3,0,0,0-1.68.7c-.56.61-.68,1.25-.68,3.54s.12,2.94.68,3.55A2.29,2.29,0,0,0,8,72.67a2.42,2.42,0,0,0,1.86-.8,2.56,2.56,0,0,0,.58-1.79v-.64H8V68h4.17v1.75A4.3,4.3,0,0,1,11.11,72.93Z"/><path class="cls-4" d="M21.37,73a4.13,4.13,0,0,1-3,1.21,4.07,4.07,0,0,1-3-1.21c-1.12-1.12-1.11-2.39-1.11-4.58s0-3.46,1.11-4.58a4.08,4.08,0,0,1,3-1.22,4.14,4.14,0,0,1,3,1.22c1.12,1.12,1.09,2.39,1.09,4.58S22.49,71.89,21.37,73Zm-1.31-8.12a2.41,2.41,0,0,0-3.4,0c-.56.61-.67,1.25-.67,3.54s.11,2.93.67,3.54a2.41,2.41,0,0,0,3.4,0c.56-.61.67-1.25.67-3.54S20.62,65.5,20.06,64.89Z"/><path class="cls-4" d="M32.71,64.28v9.85H31V64.28H27.84V62.73h8v1.55Z"/><path class="cls-4" d="M44.5,73a4.32,4.32,0,0,1-6,0c-1.12-1.12-1.1-2.39-1.1-4.58s0-3.46,1.1-4.58a4.3,4.3,0,0,1,6,0c1.12,1.12,1.09,2.39,1.09,4.58S45.62,71.89,44.5,73Zm-1.31-8.12a2.4,2.4,0,0,0-3.39,0c-.56.61-.67,1.25-.67,3.54s.11,2.93.67,3.54a2.4,2.4,0,0,0,3.39,0c.56-.61.67-1.25.67-3.54S43.75,65.5,43.19,64.89Z"/><path class="cls-4" d="M55.85,64.28v9.85H54.12V64.28H51V62.73h8v1.55Z"/><path class="cls-4" d="M67.64,73a4.13,4.13,0,0,1-3,1.21,4.07,4.07,0,0,1-3-1.21c-1.12-1.12-1.11-2.39-1.11-4.58s0-3.46,1.11-4.58a4.08,4.08,0,0,1,3-1.22,4.14,4.14,0,0,1,3,1.22c1.12,1.12,1.09,2.39,1.09,4.58S68.76,71.89,67.64,73Zm-1.31-8.12a2.41,2.41,0,0,0-3.4,0c-.56.61-.67,1.25-.67,3.54s.11,2.93.67,3.54a2.41,2.41,0,0,0,3.4,0c.56-.61.67-1.25.67-3.54S66.89,65.5,66.33,64.89Z"/><path class="cls-4" d="M75.61,69.64H73v4.49H71.28V62.73h4.33a3.46,3.46,0,1,1,0,6.91Zm-.1-5.36H73v3.8h2.5a1.9,1.9,0,1,0,0-3.8Z"/><polyline class="cls-5" points="27.01 25.94 41.53 11.41 56.06 25.94"/><polyline class="cls-5" points="27.01 15.94 41.53 1.41 56.06 15.94"/><path class="cls-6" d="M46.35,70.72a4.82,4.82,0,0,1-9.63,0c0-2.66,4.81-10.77,4.81-10.77S46.35,68.06,46.35,70.72Z"/></g></g></svg>