<svg xmlns="http://www.w3.org/2000/svg" viewBox="0 0 60.3 35"><defs><style>.cls-1{fill:#251e1c;}.cls-2{fill:#005cb9;}</style></defs><title>アセット 1</title><g id="レイヤー_2" data-name="レイヤー 2"><g id="header"><path class="cls-1" d="M9.8,0H1.13A1.13,1.13,0,0,0,0,1.13v32a1.12,1.12,0,0,0,1.13,1.13H9.89c5.3,0,7.7-1.31,9.8-4,1.94-2.44,2.54-6.23,2.54-12.78V15c0-6.63-1.07-9.83-3.43-12.18C16-.08,11.57,0,9.8,0Z"/><path class="cls-2" d="M20.15,17.86c0,6-.68,9.09-2.08,11.05-1.55,2.15-3.68,3.3-8.18,3.3H2.25V2.09h8.09c1.58,0,4.8.14,7,2.29s2.79,6.27,2.79,10.69Z"/><path class="cls-1" d="M36.59,22.11c3.77-.49,8.34-2.18,8.23-11.33C44.7-.07,36.84,0,33.79,0H25.14A1.13,1.13,0,0,0,24,1.17v32a1.13,1.13,0,0,0,1.13,1.13H37.67a1.13,1.13,0,0,0,1.13-1.13.75.75,0,0,0,0-.21S36.93,24,36.59,22.11Z"/><path class="cls-2" d="M26.09,32.17V2.1h9c4.22,0,7.72,1.76,7.72,8.68,0,8.19-3.31,9-7.21,9.49a11.57,11.57,0,0,1-1.37.07s2,9.73,2.35,11.83Z"/><path class="cls-1" d="M60.3,23.68V1.15A1.14,1.14,0,0,0,59.17,0H46.81a2.14,2.14,0,0,0-1.36.37,1.17,1.17,0,0,0-.41.86,1.79,1.79,0,0,0,0,.23s2,9.77,3.64,18.2c-3.05,0-5.26.63-7,2.35a8,8,0,0,0-2.06,5.7,7.38,7.38,0,0,0,1.69,4.5C43,34.14,45.61,35,49.46,35s6.82-1,8.61-2.75C60.52,29.8,60.3,25.79,60.3,23.68Z"/><path class="cls-2" d="M58.26,23.81c0,3.51,0,5.47-1.79,7.11-1.38,1.27-3.83,2.06-7,2.06s-5.31-.73-6.52-1.85a5,5,0,0,1-1.25-3.57,6,6,0,0,1,1.5-4.21,8.16,8.16,0,0,1,5.91-1.74c.68,3.38,1.67,8.33,1.67,8.33A1.13,1.13,0,0,0,53,29.72a.82.82,0,0,0,0-.22s-5.13-25-5.63-27.45H58.26Z"/><path class="cls-1" d="M33.51,17.6,31,5.22a1.12,1.12,0,1,1,2.2-.45l2.53,12.37a1.13,1.13,0,0,1-.88,1.34A1.12,1.12,0,0,1,33.51,17.6Z"/><path class="cls-1" d="M13.36,30.16A1.13,1.13,0,0,1,12,29.27L7.21,5.08a1.13,1.13,0,1,1,2.21-.44l4.82,24.19A1.13,1.13,0,0,1,13.36,30.16Z"/></g></g></svg>