<svg xmlns="http://www.w3.org/2000/svg" xmlns:xlink="http://www.w3.org/1999/xlink" viewBox="0 0 300.37 300"><defs><style>.cls-1,.cls-10,.cls-11,.cls-13,.cls-7{fill:none;}.cls-2,.cls-6,.cls-8{fill:#fff;}.cls-3{clip-path:url(#clip-path);}.cls-4,.cls-9{fill:#ea0029;}.cls-5{clip-path:url(#clip-path-2);}.cls-10,.cls-6,.cls-7,.cls-9{stroke:#ea0029;}.cls-11,.cls-6,.cls-7,.cls-9{stroke-linecap:round;stroke-linejoin:round;}.cls-6,.cls-7{stroke-width:5.85px;}.cls-11,.cls-8{stroke:#fff;}.cls-10,.cls-13,.cls-8{stroke-miterlimit:10;}.cls-8{stroke-width:18.01px;}.cls-9{stroke-width:14.08px;}.cls-10{stroke-width:13.5px;}.cls-11{stroke-width:6.75px;}.cls-12{clip-path:url(#clip-path-3);}.cls-13{stroke:#ff9a8d;stroke-width:6.38px;}.cls-14{fill:#ff9a8d;}</style><clipPath id="clip-path"><path class="cls-1" d="M175.13,2.08,138.78,107.71,62.7,28.15A150,150,0,1,0,175.13,2.08Z"/></clipPath><clipPath id="clip-path-2"><circle class="cls-1" cx="150.19" cy="150" r="133.78" transform="translate(-62.08 150.13) rotate(-45)"/></clipPath><clipPath id="clip-path-3"><path class="cls-1" d="M284,150A133.79,133.79,0,1,1,150.19,16.22,133.78,133.78,0,0,1,284,150Zm-93.63,16.74a70,70,0,1,0-101.58-3.53A70.19,70.19,0,0,0,190.34,166.74Z"/></clipPath></defs><title>アセット 2</title><g id="レイヤー_2" data-name="レイヤー 2"><g id="design"><circle class="cls-2" cx="150.19" cy="150" r="150"/><g class="cls-3"><path class="cls-4" d="M150.19,22.7A127.3,127.3,0,1,1,22.89,150,127.3,127.3,0,0,1,150.19,22.7m0-6.48A133.78,133.78,0,0,0,55.59,244.6,133.78,133.78,0,0,0,244.79,55.4a132.91,132.91,0,0,0-94.6-39.18Z"/></g><g class="cls-5"><path class="cls-6" d="M11.66,140.55s47.74,23.74,61.26,41c22.81,29.13-1.36,44.36-20.37,29.1-24.74-19.87-35.36-14.16-49.62-30.86"/><path class="cls-7" d="M41.77,200.09s2.43-13.52,11.12-7.94a72.17,72.17,0,0,1,22.23,23"/><path class="cls-6" d="M288.72,140.55s-47.75,23.74-61.27,41c-22.81,29.13,1.37,44.36,20.37,29.1,24.75-19.87,35.36-14.16,49.63-30.86"/><path class="cls-7" d="M258.6,200.09s-2.42-13.52-11.12-7.94a72.3,72.3,0,0,0-22.23,23"/></g><path class="cls-8" d="M164,271.77a13.78,13.78,0,0,1-27.55,0c0-7.61,13.78-33,13.78-33S164,264.16,164,271.77Z"/><path class="cls-4" d="M164,271.83a13.8,13.8,0,0,1-27.6,0c0-7.62,13.8-33,13.8-33S164,264.21,164,271.83Z"/><polygon class="cls-9" points="150.19 165.7 101.89 133.79 67.72 165.61 150.19 223.24 150.19 165.7"/><polygon class="cls-9" points="150.19 165.7 198.48 133.79 232.66 165.61 150.19 223.24 150.19 165.7"/><line class="cls-10" x1="262.06" y1="145.06" x2="150.19" y2="223.24"/><line class="cls-10" x1="38.04" y1="144.83" x2="150.19" y2="223.24"/><line class="cls-11" x1="150.19" y1="209.33" x2="150.19" y2="150"/><rect class="cls-2" x="35.16" y="68.74" width="223.71" height="49.98"/><path class="cls-2" d="M254.28,73.34v40.78H39.76V73.34H254.28m9.19-9.2H30.57v59.18h232.9V64.14Z"/><g class="cls-12"><line class="cls-13" x1="116.6" y1="7.97" x2="136.13" y2="93.13"/><line class="cls-13" x1="153.22" y1="4.36" x2="136.13" y2="93.13"/><line class="cls-13" x1="136.13" y1="93.13" x2="82.9" y2="20.28"/></g><path class="cls-4" d="M189.73,73.33v5.25H178.07v35.53h-5.83V78.58H160.88V73.33Z"/><path class="cls-4" d="M223.1,73.33v5.25H211.44v35.53h-5.83V78.58H194.24V73.33Z"/><path class="cls-4" d="M153.39,73.35v40.77h-5.83V73.35Z"/><polygon class="cls-4" points="84.62 71.66 84.26 71.66 65.27 114.09 71.04 114.09 84.2 83.78 91.31 100.79 81.15 100.79 79.39 105.53 93.29 105.53 96.89 114.09 103.62 114.09 84.62 71.66"/><rect class="cls-4" x="107.82" y="73.35" width="5.95" height="40.74"/><polygon class="cls-14" points="123.46 91.95 139.62 73.35 132.11 73.35 115.86 91.8 143.15 124.97 150.55 124.97 123.46 91.95"/><path class="cls-4" d="M64.1,76.68q-4-3.33-11.09-3.33H39.78v40.74h5.83V78.59h8.3c2.88,0,5,.76,6.37,2.28a7.62,7.62,0,0,1,2,5.22,8.06,8.06,0,0,1-.84,3.46,7.29,7.29,0,0,1-2.79,3,9.44,9.44,0,0,1-5.08,1.24H49.9V99.1h3.71a16.55,16.55,0,0,0,8.26-1.86,11.28,11.28,0,0,0,4.75-4.84A14.35,14.35,0,0,0,68.09,86Q68.09,80,64.1,76.68Z"/><polygon class="cls-4" points="233.42 108.8 233.42 78.59 254.28 78.59 254.28 73.35 227.59 73.35 227.59 114.09 256.69 114.09 256.69 108.8 233.42 108.8"/><rect class="cls-4" x="237.75" y="89.52" width="14.13" height="5.24"/></g></g></svg>