<svg xmlns="http://www.w3.org/2000/svg" viewBox="0 0 77.14 14.48"><title>アセット 6</title><g id="レイヤー_2" data-name="レイヤー 2"><g id="design"><path d="M5,14.48A6.45,6.45,0,0,1,0,12.6l1.44-1.42a4.7,4.7,0,0,0,3.64,1.36c1.86,0,2.94-.8,2.94-2.18a1.92,1.92,0,0,0-.56-1.48,2.47,2.47,0,0,0-1.56-.6L4.22,8A4.87,4.87,0,0,1,1.52,6.9a3.54,3.54,0,0,1-1-2.72C.48,1.7,2.28,0,5.24,0A5.93,5.93,0,0,1,9.66,1.62L8.28,3a4.18,4.18,0,0,0-3.1-1.1c-1.68,0-2.6,1-2.6,2.22a1.69,1.69,0,0,0,.54,1.32,3.18,3.18,0,0,0,1.6.66l1.62.24A4.71,4.71,0,0,1,9,7.38a3.73,3.73,0,0,1,1.16,2.92C10.16,12.92,8,14.48,5,14.48Z"/><path d="M18.66,14.48A5.16,5.16,0,0,1,14.92,13c-1.4-1.4-1.38-3-1.38-5.72s0-4.32,1.38-5.72A5.16,5.16,0,0,1,18.66,0a4.9,4.9,0,0,1,5.08,4.38h-2.2a2.94,2.94,0,0,0-5-1.58c-.7.76-.86,1.58-.86,4.44s.16,3.68.86,4.44a2.85,2.85,0,0,0,2.1.86,2.88,2.88,0,0,0,2.9-2.44h2.18A4.92,4.92,0,0,1,18.66,14.48Z"/><path d="M35.48,14.36l-3-6h-2.7v6H27.62V.12h5.52a4.07,4.07,0,0,1,4.42,4.16,3.74,3.74,0,0,1-2.84,3.78L38,14.36ZM33,2.06h-3.2V6.52H33A2.17,2.17,0,0,0,35.4,4.3,2.18,2.18,0,0,0,33,2.06Z"/><path d="M50.08,13a5.39,5.39,0,0,1-7.5,0c-1.4-1.4-1.38-3-1.38-5.72s0-4.32,1.38-5.72a5.39,5.39,0,0,1,7.5,0c1.4,1.4,1.36,3,1.36,5.72S51.48,11.56,50.08,13ZM48.44,2.82a3,3,0,0,0-4.24,0c-.7.76-.84,1.56-.84,4.42s.14,3.66.84,4.42a3,3,0,0,0,4.24,0c.7-.76.84-1.56.84-4.42S49.14,3.58,48.44,2.82Z"/><path d="M55.64,14.36V.12H57.8v12.3h6.86v1.94Z"/><path d="M68.12,14.36V.12h2.16v12.3h6.86v1.94Z"/></g></g></svg>